<svg xmlns="http://www.w3.org/2000/svg" style="isolation:isolate" viewBox="544 24.54188999999998 225 225.5730137921957" width="225" height="225.573"><linearGradient id="a" x1="0%" y1="50%" x2="70.096%" y2="-21.32%"><stop offset="5.184%" stop-color="#070135"/><stop offset="94.43%" stop-color="#612d50"/></linearGradient><rect rx="20.68" ry="20.68" x="544" y="24.542" width="225" height="225.573" fill="url(#a)" stroke-width=".249" stroke="rgba(0,0,0,0)"/><path d="M658.2 121.652c5.745 0 10.102-1.248 13.07-3.744 2.968-2.496 4.452-6.177 4.452-11.044 0-4.804-1.484-8.454-4.452-10.95-2.968-2.558-7.325-3.837-13.07-3.837h-20.176v29.575H658.2zm1.23 61.115c7.325 0 12.819-1.529 16.481-4.586 3.726-3.058 5.588-7.675 5.589-13.852 0-6.052-1.832-10.575-5.494-13.57-3.662-3.058-9.188-4.586-16.576-4.586h-21.406v36.594h21.406m33.91-50.259c7.83 2.247 13.891 6.396 18.185 12.448 4.294 6.052 6.44 13.477 6.44 22.275 0 13.477-4.609 23.522-13.828 30.136-9.22 6.614-23.237 9.92-42.054 9.92h-60.525V67.557h54.747c19.638 0 33.845 2.933 42.623 8.798 8.84 5.865 13.26 15.255 13.26 28.17 0 6.802-1.61 12.604-4.83 17.408-3.221 4.743-7.894 8.268-14.019 10.576" fill-rule="evenodd" fill="#FFF" stroke-width=".249" stroke="rgba(0,0,0,0)"/></svg>