<svg xmlns="http://www.w3.org/2000/svg" style="isolation:isolate" viewBox="18.999999999999993 24.541889999999967 158.99999999999997 224.42892047527752" width="159" height="224.429"><path d="M98.403 248.97L33.47 230.946 19 68.647h159L163.515 230.92l-65.112 18.05z" fill="#264DE4" stroke="rgba(0,0,0,0)"/><path d="M151.114 220.587l12.378-138.67H98.5v153.256l52.614-14.586z" fill="#2965F1" stroke="rgba(0,0,0,0)"/><path d="M52.172 142.112l1.784 19.904H98.5v-19.904H52.172zm-3.585-40.289l1.81 19.905H98.5v-19.905H48.587zM98.5 193.807l-.087.024-22.169-5.986-1.417-15.876H54.846l2.788 31.254 40.774 11.32.092-.026v-20.71z" fill="#EBEBEB" stroke="rgba(0,0,0,0)"/><path d="M56.42 24.542h24.108v10.082H66.501v10.081h14.027v10.082H56.42V24.542zm28.93 0h24.108v8.767H95.432v1.753h14.026v20.164H85.35V46.02h14.027v-1.753H85.35V24.542zm28.93 0h24.109v8.767h-14.027v1.753h14.027v20.164H114.28V46.02h14.027v-1.753H114.28V24.542z" stroke="rgba(0,0,0,0)"/><path d="M144.7 142.112l3.594-40.289H98.43v19.905h28.049l-1.812 20.384H98.431v19.904h24.511l-2.31 25.816-22.2 5.992v20.709l40.806-11.31.3-3.363 4.677-52.403.485-5.345z" fill="#FFF" stroke="rgba(0,0,0,0)"/></svg>