<svg xmlns="http://www.w3.org/2000/svg" style="isolation:isolate" viewBox="204.00000000000003 24.541889999999967 159.41948929018392 224.42892047527752" width="159.419" height="224.429"><path d="M219.066 24.542h10.115v9.994h9.253v-9.994h10.116v30.264h-10.115V44.672h-9.253v10.134h-10.116V24.542zm42.787 10.036h-8.906V24.542h27.931v10.036h-8.909v20.228h-10.116V34.578zm23.458-10.036h10.548l6.488 10.634 6.482-10.634h10.552v30.264h-10.074v-15l-6.96 10.76h-.174l-6.964-10.76v15h-9.898V24.542zm39.104 0h10.118v20.26h14.226v10.004h-24.344V24.542z" stroke="rgba(0,0,0,0)"/><path d="M218.515 230.88L204 68.067h159.42l-14.533 162.824-65.216 18.079-65.156-18.092z" fill="#E34E26" stroke="rgba(0,0,0,0)"/><path d="M283.71 81.375v153.766l52.735-14.618L348.87 81.375h-65.16z" fill="#EF662A" stroke="rgba(0,0,0,0)"/><path d="M233.697 101.346l5.383 60.386h69.211l-2.323 25.9-22.284 6.025-22.242-6.016-1.487-16.63H239.91l2.866 32.058 40.902 11.36 40.955-11.36 5.49-61.303h-72.78l-1.828-20.45h76.419l1.788-19.97H233.697z" fill="#FFF" stroke="rgba(0,0,0,0)"/><path d="M283.71 101.346h-50.013l5.383 60.386h44.63v-19.966h-26.367l-1.827-20.45h28.194v-19.97zm0 92.303l-.026.008-22.242-6.016-1.487-16.63H239.91l2.866 32.058 40.902 11.36.03-.008v-20.772z" fill="#EBEBEB" stroke="rgba(0,0,0,0)"/></svg>