<svg xmlns="http://www.w3.org/2000/svg" style="isolation:isolate" viewBox="435.3768153198639 295.43865722976363 178.71993958998246 224.13756103927597" width="178.72" height="224.138"><path d="M570.057 411.83L524 519V398.485a43.129 43.129 0 0 0 33.044 15.332 43.31 43.31 0 0 0 13.013-1.988zm25.634-59.65L614 309.576l-15.19 3.907L604.06 295 524 316.088v27.57a43.129 43.129 0 0 1 33.044-15.333 43.132 43.132 0 0 1 38.647 23.854z" fill="#41a838"/><path d="M478.455 411.83L524 519V398.485c-7.817 9.37-19.558 15.332-32.677 15.332-4.484 0-8.807-.696-12.868-1.988zm-25.35-59.65L435 309.576l15.021 3.907L444.83 295 524 316.088v27.57c-7.817-9.37-19.558-15.333-32.677-15.333-16.754 0-31.262 9.727-38.218 23.854z" fill="#4ec242"/><path d="M509.75 413.397l28.146 4.513-19.68 34.359-8.465-38.872z" fill="#41A838" stroke="rgba(0,0,0,0)" stroke-linecap="square"/><path d="M509.75 413.397h29.973l-14.655 36.738-15.317-36.738z" fill="#FFF" stroke="rgba(0,0,0,0)" stroke-linecap="square"/><circle vector-effect="non-scaling-stroke" r="1" fill="#23201F" transform="translate(491.721 371.44) scale(15.4997)" stroke="rgba(0,0,0,0)"/><circle vector-effect="non-scaling-stroke" r="1" fill="#23201F" transform="translate(558.609 371.44) scale(15.4997)" stroke="rgba(0,0,0,0)"/><path d="M524.737 340.005c-24.555-35.06-68.319-17.501-77.383-1.895l6.208 14.543c5.198-14 39.62-42.053 71.175-8.532" fill="#41A838" stroke="rgba(0,0,0,0)" stroke-linecap="square"/></svg>