<svg width="50" height="50" viewBox="0 0 50 50" fill="none" xmlns="http://www.w3.org/2000/svg">
<path d="M9.99982 3.33333H2.49996C2.03976 3.33333 1.66664 2.96021 1.66664 2.5C1.66664 2.03979 2.03976 1.66667 2.49996 1.66667H5.83323V-2.28882e-07H2.49996C1.11925 -2.28882e-07 2.79739e-07 1.11927 2.79739e-07 2.5C2.79739e-07 3.88073 1.11925 5 2.49996 5H9.99982C10.46 5 10.8331 5.37312 10.8331 5.83333C10.8331 6.29354 10.46 6.66667 9.99982 6.66667H4.99991V8.33333H9.99982C11.3805 8.33333 12.4998 7.21406 12.4998 5.83333C12.4998 4.4526 11.3805 3.33333 9.99982 3.33333Z" transform="translate(37.5002 41.6667)" fill="white"/>
<path d="M1.66664 0H0V1.66667H1.66664V0Z" transform="translate(45.0001 41.6667)" fill="white"/>
<path d="M40.0002 48.3333C37.7002 48.3306 35.8363 46.4667 35.8336 44.1667V38.18C37.1328 37.7224 37.8151 36.2981 37.3575 34.9989C37.0054 33.9993 36.0602 33.3312 35.0003 33.3333H30.8337V25H32.5003V20H27.5004V0H22.5005V20H0.000903331V25H1.66754V33.0108L0.570893 33.3767C0.133713 33.5223 -0.102636 33.9949 0.0429859 34.4321C0.188608 34.8693 0.661204 35.1056 1.09838 34.96L1.69754 34.76C2.0091 38.6561 5.25883 41.6608 9.16741 41.6667H14.1673V44.1667C14.171 47.3868 16.7805 49.9964 20.0005 50H40.0002C40.4604 50 40.8335 49.6269 40.8335 49.1667C40.8335 48.7065 40.4604 48.3333 40.0002 48.3333ZM27.5004 21.6667H30.8337V23.3333H27.5004V21.6667ZM27.5004 25H29.167V33.3333H27.5004V25ZM24.1671 1.66667H25.8338V33.3333H24.1671V1.66667ZM1.66754 23.3333V21.6667H22.5005V23.3333H1.66754ZM12.5473 36.2925C12.5557 36.3392 12.569 36.3833 12.5807 36.4292C12.6054 36.5314 12.6365 36.6318 12.674 36.73C12.6923 36.7767 12.7107 36.8225 12.7315 36.8683C12.7765 36.9657 12.8277 37.0601 12.8848 37.1508C12.9065 37.185 12.9248 37.2208 12.9482 37.2542C13.0309 37.373 13.1238 37.4846 13.2257 37.5875C13.2423 37.605 13.2623 37.6183 13.2798 37.635C13.3682 37.7196 13.4626 37.7975 13.5623 37.8683C13.6007 37.895 13.6398 37.9192 13.6798 37.9442C13.7679 37.9996 13.8596 38.0494 13.954 38.0933C13.9965 38.1133 14.0373 38.1333 14.0832 38.1508C14.1115 38.1625 14.1382 38.1775 14.1665 38.1883V40H9.16741C5.96423 39.9969 3.36157 37.4139 3.33418 34.2108L16.0956 29.9608C16.5328 29.8152 16.7691 29.3426 16.6235 28.9054C16.4779 28.4682 16.0053 28.2319 15.5681 28.3775L3.33418 32.455V25H22.5005V33.3333H15.0006C13.6306 33.3228 12.5114 34.4249 12.5009 35.795C12.4995 35.9621 12.5152 36.1287 12.5473 36.2925ZM14.1673 35.8333C14.1673 35.3731 14.5404 35 15.0006 35H35.0003C35.4605 35 35.8336 35.3731 35.8336 35.8333C35.8336 36.2935 35.4605 36.6667 35.0003 36.6667H15.0006C14.5404 36.6667 14.1673 36.2936 14.1673 35.8333ZM26.6671 48.3333C24.3671 48.3306 22.5032 46.4667 22.5005 44.1667C22.5005 43.7065 22.1274 43.3333 21.6672 43.3333C21.207 43.3333 20.8339 43.7065 20.8339 44.1667C20.8326 45.7353 21.4652 47.2379 22.588 48.3333H20.0005C17.7006 48.3306 15.8367 46.4667 15.834 44.1667V38.3333H34.167V44.1667C34.1657 45.7353 34.7983 47.2379 35.9211 48.3333H26.6671Z" fill="white"/>
</svg>
