<svg width="52" height="49" viewBox="0 0 52 49" fill="none" xmlns="http://www.w3.org/2000/svg">
<rect width="52" height="49" fill="black" fill-opacity="0"/>
<rect width="2.03125" height="2.04167" fill="black" fill-opacity="0" transform="translate(32.0938 24.5)"/>
<rect width="2.03125" height="2.04167" fill="black" fill-opacity="0" transform="translate(32.0938 24.5)"/>
<path d="M33.1094 24.5C32.5508 24.5 32.0938 24.9594 32.0938 25.5208C32.0938 26.0823 32.5508 26.5417 33.1094 26.5417C33.668 26.5417 34.125 26.0823 34.125 25.5208C34.125 24.9594 33.668 24.5 33.1094 24.5Z" fill="white"/>
<rect width="38.5938" height="32.6667" fill="black" fill-opacity="0" transform="translate(6.70312 16.3333)"/>
<rect width="38.5938" height="32.6667" fill="black" fill-opacity="0" transform="translate(6.70312 16.3333)"/>
<path d="M42.25 40.8333H41.0414L37.7305 22.2031C37.1109 18.8038 34.1758 16.3333 30.7328 16.3333H21.2672C17.8242 16.3333 14.8891 18.8038 14.2695 22.2031L10.9586 40.8333H9.75C8.07422 40.8333 6.70312 42.2115 6.70312 43.8958V47.9792C6.70312 48.5406 7.16016 49 7.71875 49H44.2812C44.8398 49 45.2969 48.5406 45.2969 47.9792V43.8958C45.2969 42.2115 43.9258 40.8333 42.25 40.8333ZM16.2703 22.5706C16.707 20.1411 18.8094 18.375 21.2672 18.375H30.7328C33.1906 18.375 35.293 20.1411 35.7297 22.5604L38.9695 40.8333H13.0305L16.2703 22.5706ZM43.2656 46.9583H8.73438V43.8958C8.73438 43.3344 9.19141 42.875 9.75 42.875C12.0352 42.875 40.8688 42.875 42.25 42.875C42.8086 42.875 43.2656 43.3344 43.2656 43.8958V46.9583Z" fill="white"/>
<rect width="3.52468" height="10.2878" fill="black" fill-opacity="0" transform="translate(32.8719 28.4978)"/>
<rect width="3.52468" height="10.2878" fill="black" fill-opacity="0" transform="translate(32.8719 28.4978)"/>
<path d="M36.3797 37.5871L34.8867 29.3387C34.7852 28.7875 34.257 28.42 33.7086 28.5118C33.1602 28.6139 32.7945 29.1448 32.8859 29.696L34.3789 37.9443C34.4805 38.5058 35.0086 38.8631 35.557 38.7712C36.1156 38.6793 36.4812 38.1383 36.3797 37.5871Z" fill="white"/>
<rect width="10.7656" height="2.04167" fill="black" fill-opacity="0" transform="translate(41.2344 24.5)"/>
<rect width="10.7656" height="2.04167" fill="black" fill-opacity="0" transform="translate(41.2344 24.5)"/>
<path d="M50.9844 24.5H42.25C41.6914 24.5 41.2344 24.9594 41.2344 25.5208C41.2344 26.0823 41.6914 26.5417 42.25 26.5417H50.9844C51.543 26.5417 52 26.0823 52 25.5208C52 24.9594 51.543 24.5 50.9844 24.5Z" fill="white"/>
<rect width="10.7656" height="2.04167" fill="black" fill-opacity="0" transform="translate(0 24.5)"/>
<rect width="10.7656" height="2.04167" fill="black" fill-opacity="0" transform="translate(0 24.5)"/>
<path d="M9.75 24.5H1.01562C0.457031 24.5 0 24.9594 0 25.5208C0 26.0823 0.457031 26.5417 1.01562 26.5417H9.75C10.3086 26.5417 10.7656 26.0823 10.7656 25.5208C10.7656 24.9594 10.3086 24.5 9.75 24.5Z" fill="white"/>
<rect width="7.77461" height="7.81448" fill="black" fill-opacity="0" transform="translate(36.4787 7.17389)"/>
<rect width="7.77461" height="7.81448" fill="black" fill-opacity="0" transform="translate(36.4787 7.17389)"/>
<path d="M43.9563 7.47248C43.5602 7.07436 42.9203 7.07436 42.5242 7.47248L36.7758 13.2504C36.3797 13.6485 36.3797 14.2917 36.7758 14.6898C37.1719 15.0879 37.8117 15.0879 38.2078 14.6898L43.9563 8.91186C44.3524 8.52394 44.3524 7.87061 43.9563 7.47248Z" fill="white"/>
<rect width="7.76573" height="7.81448" fill="black" fill-opacity="0" transform="translate(7.75684 7.17389)"/>
<rect width="7.76573" height="7.81448" fill="black" fill-opacity="0" transform="translate(7.75684 7.17389)"/>
<path d="M15.2242 13.2504L9.48594 7.47248C9.08984 7.07436 8.45 7.07436 8.05391 7.47248C7.65781 7.87061 7.65781 8.51373 8.05391 8.91186L13.8023 14.6898C14.1984 15.0879 14.8383 15.0879 15.2344 14.6898C15.6203 14.2917 15.6203 13.6485 15.2242 13.2504Z" fill="white"/>
<rect width="2.03125" height="10.2083" fill="black" fill-opacity="0" transform="translate(24.9844)"/>
<rect width="2.03125" height="10.2083" fill="black" fill-opacity="0" transform="translate(24.9844)"/>
<path d="M26 0C25.4414 0 24.9844 0.459375 24.9844 1.02083V9.1875C24.9844 9.74896 25.4414 10.2083 26 10.2083C26.5586 10.2083 27.0156 9.74896 27.0156 9.1875V1.02083C27.0156 0.459375 26.5586 0 26 0Z" fill="white"/>
</svg>
