<svg width="47" height="50" viewBox="0 0 47 50" fill="none" xmlns="http://www.w3.org/2000/svg">
<path d="M10.6999 41.3167H1.83437V33.5101H8.25497C8.76147 33.5101 9.17209 33.1009 9.17209 32.5961V19.1639C9.17209 18.6591 8.76147 18.2498 8.25497 18.2498H1.83425V12.0659H16.7528V13.6831C16.7528 14.188 17.1634 14.5972 17.6699 14.5972C18.1764 14.5972 18.587 14.188 18.587 13.6831V11.1518C18.587 10.849 18.4365 10.5656 18.185 10.3956L13.0027 6.8894V0.914086C13.0027 0.409267 12.5921 7.81079e-08 12.0856 7.81079e-08H6.50143C5.99493 7.81079e-08 5.5843 0.409267 5.5843 0.914086V6.8894L0.402067 10.3956C0.150653 10.5657 -9.88923e-08 10.849 -9.88923e-08 11.1518V42.2308C-9.88923e-08 42.7356 0.410627 43.1449 0.917124 43.1449H10.6998C11.2063 43.1449 11.6169 42.7356 11.6169 42.2308C11.6169 41.7259 11.2064 41.3167 10.6999 41.3167ZM7.33772 20.078V31.6818H1.83425V20.078H7.33772ZM6.78329 8.28771H11.8037L14.686 10.2378H3.90108L6.78329 8.28771ZM7.41855 1.82817H11.1686V6.45954H7.41855V1.82817Z" transform="translate(0 4.44586)" fill="white"/>
<path d="M14.6128 2.67799e-07H0.917124C0.410627 2.67799e-07 1.34344e-07 0.409267 1.34344e-07 0.914086V28.8242C1.34344e-07 29.329 0.410627 29.7383 0.917124 29.7383H14.6128C15.1193 29.7383 15.53 29.329 15.53 28.8242V0.914086C15.53 0.409267 15.1193 2.67799e-07 14.6128 2.67799e-07ZM13.6957 5.36264H12.5952V1.82817H13.6957V5.36264ZM4.76904 5.36264V1.82817H6.84786V5.36264H4.76904ZM8.6821 1.82817H10.7609V5.36264H8.6821V1.82817ZM2.9348 1.82817V5.36264H1.83425V1.82817H2.9348ZM1.83425 27.9101V7.19081H13.6957V27.9101H1.83425Z" transform="translate(12.3506 20.2617)" fill="white"/>
<path d="M24.3621 4.53946H7.54864L6.34941 0.646067C6.20083 0.163551 5.68785 -0.107628 5.20349 0.0404544L0.647954 1.43437C0.293333 1.54297 0.039227 1.85364 0.00413174 2.22171C-0.0309635 2.58978 0.159799 2.94274 0.487641 3.1158L5.34497 5.68195L1.4582 9.55694C1.28627 9.72842 1.18967 9.96084 1.18967 10.2033V18.3727C1.18967 18.8776 1.60029 19.2868 2.10679 19.2868C2.61329 19.2868 3.02392 18.8776 3.02392 18.3727V10.5817L7.25088 6.36763H23.4452V39.031H21.4275C20.921 39.031 20.5104 39.4402 20.5104 39.9451C20.5104 40.4499 20.921 40.8591 21.4275 40.8591H24.3623C24.8688 40.8591 25.2794 40.4499 25.2794 39.9451V5.45355C25.2792 4.94873 24.8686 4.53946 24.3621 4.53946ZM3.30321 2.53432L4.86489 2.05644L5.34424 3.6127L3.30321 2.53432Z" transform="translate(20.8215)" fill="white"/>
<path d="M8.27441 3.31362V0.914086C8.27441 0.409267 7.86379 2.67799e-07 7.35729 2.67799e-07H4.13721C3.63071 2.67799e-07 3.22008 0.409267 3.22008 0.914086V3.31362L0.299348 5.96679C0.108586 6.13998 -8.65774e-07 6.38532 -8.65774e-07 6.64236V19.4396C-8.65774e-07 19.9444 0.410626 20.3536 0.917123 20.3536H10.5775C11.084 20.3536 11.4946 19.9444 11.4946 19.4396V6.64236C11.4946 6.38519 11.3859 6.13998 11.1953 5.96679L8.27441 3.31362ZM4.49232 4.63137H7.00206L8.2096 5.72827H3.28477L4.49232 4.63137ZM5.05433 1.82817H6.44017V2.8032H5.05433V1.82817ZM1.83412 18.5255V7.55644H9.66024V18.5255H1.83412Z" transform="translate(29.1035 27.0869)" fill="white"/>
<path d="M8.25497 -1.6663e-06H0.917123C0.410626 -1.6663e-06 -5.97086e-07 0.409265 -5.97086e-07 0.914084V8.59314C-5.97086e-07 9.09796 0.410626 9.50722 0.917123 9.50722H8.25485C8.76134 9.50722 9.17197 9.09796 9.17197 8.59314V0.914084C9.17209 0.409265 8.76147 -1.6663e-06 8.25497 -1.6663e-06ZM7.33785 7.67905H1.83425V1.82817H7.33772V7.67905H7.33785Z" transform="translate(15.5295 33.137)" fill="white"/>
</svg>
