<svg width="38" height="50" viewBox="0 0 38 50" fill="none" xmlns="http://www.w3.org/2000/svg">
<path d="M37.5518 29.7646L37.5161 29.2754C36.9414 21.8192 33.4581 17.1451 30.3852 13.0223C27.5397 9.20463 25.0822 5.90787 25.0822 1.0435C25.0822 0.652892 24.8627 0.295873 24.5147 0.116778C24.1656 -0.0632931 23.7461 -0.033802 23.4288 0.19617C18.8137 3.48785 14.963 9.03579 13.6178 14.3293C12.684 18.0148 12.5605 22.1579 12.5431 24.8942C8.28113 23.9868 7.31566 17.6322 7.30547 17.5631C7.25746 17.2335 7.05544 16.9466 6.7615 16.79C6.46453 16.6354 6.11544 16.6242 5.81436 16.7727C5.59087 16.8805 0.328615 19.5457 0.0224367 30.1877C0.00097967 30.5417 2.63122e-07 30.8957 2.63122e-07 31.2507C2.63122e-07 41.5887 8.43926 50 18.8116 50C29.184 50 37.6232 41.5887 37.6232 31.2507C37.6232 30.732 37.5876 30.2478 37.5518 29.7646ZM18.8116 47.9168C15.3538 47.9168 12.5411 44.9303 12.5411 41.2591C12.5411 41.134 12.5401 41.0079 12.5492 40.8533C12.591 39.3051 12.8861 38.2482 13.2096 37.5453C13.8159 38.8433 14.9007 40.0364 16.6602 40.0364C17.2379 40.0364 17.7054 39.5705 17.7054 38.9947C17.7054 37.5116 17.736 35.8007 18.1065 34.2565C18.4362 32.8864 19.224 31.4307 20.2222 30.2629C20.6661 31.7786 21.5317 33.0053 22.3767 34.2026C23.5861 35.9157 24.8363 37.6866 25.0558 40.7067C25.069 40.8857 25.0824 41.0658 25.0824 41.259C25.0822 44.9303 22.2694 47.9168 18.8116 47.9168ZM25.4165 46.5558C26.5013 45.0813 27.1724 43.2587 27.1724 41.2591C27.1724 41.014 27.1571 40.7861 27.1265 40.3599C26.8785 36.9594 25.3955 34.8578 24.0861 33.0035C22.9706 31.4247 22.0082 30.0607 22.0082 28.1259C22.0082 27.7302 21.7837 27.3691 21.4285 27.1931C21.0754 27.0161 20.6488 27.0558 20.3334 27.2949C18.329 28.8044 16.6572 31.3454 16.0735 33.7715C15.7754 35.0156 15.6714 36.3613 15.6346 37.468C14.91 36.6909 14.6854 35.2505 14.6834 35.2312C14.6365 34.8966 14.4304 34.6046 14.1293 34.449C13.8303 34.2944 13.4721 34.2903 13.171 34.4449C12.9076 34.5792 10.594 35.9016 10.4613 40.7659C10.4521 40.9307 10.4511 41.0954 10.4511 41.2592C10.4511 43.2588 11.1223 45.0814 12.2071 46.5559C6.26339 43.9979 2.09044 38.1028 2.09044 31.2509C2.09044 30.9386 2.08946 30.6274 2.11082 30.2804C2.29041 24.0367 4.29493 20.9403 5.60331 19.5743C6.51568 22.8293 8.90593 27.0843 13.5864 27.0843C14.1641 27.0843 14.6315 26.6184 14.6315 26.0427C14.6315 22.5567 14.7101 18.5285 15.645 14.8401C16.7064 10.6613 19.6141 6.14898 23.1239 3.09431C23.7067 7.55586 26.1448 10.8272 28.7076 14.2643C31.7541 18.3515 34.9037 22.578 35.4313 29.4219L35.4671 29.9203C35.4997 30.3537 35.5334 30.786 35.5334 31.2508C35.5331 38.1027 31.3601 43.9978 25.4165 46.5558Z" fill="white"/>
</svg>
