<svg width="51" height="50" viewBox="0 0 51 50" fill="none" xmlns="http://www.w3.org/2000/svg">
<path d="M17.5582 0C7.86104 0 0 7.835 0 17.5C0 27.165 7.86104 35 17.5582 35C27.2553 35 35.1163 27.165 35.1163 17.5C35.1052 7.83958 27.2507 0.0110417 17.5582 0ZM17.5582 33.3333C8.78462 33.3333 1.67221 26.2445 1.67221 17.5C1.67221 8.75552 8.78462 1.66667 17.5582 1.66667C26.3317 1.66667 33.4441 8.75552 33.4441 17.5C33.4344 26.2405 26.3277 33.3236 17.5582 33.3333Z" transform="translate(7.5249 7.50003)" fill="white"/>
<path d="M50.1662 25.8333V24.1667H45.9647C45.8825 22.0329 45.4696 19.9246 44.7407 17.9167L48.6277 16.3383L47.9973 14.7942L44.1036 16.3775C43.1805 14.362 41.9418 12.5054 40.4339 10.8775L43.4105 7.91083L42.2282 6.73333L39.2517 9.7C37.6793 8.25229 35.8939 7.05281 33.9575 6.14333L35.5887 2.28333L34.0478 1.63583L32.4174 5.49417C30.3356 4.71448 28.1415 4.27323 25.9192 4.1875V0H24.247V4.1875C22.1061 4.26948 19.9908 4.68104 17.9762 5.4075L16.3918 1.5325L14.8442 2.16167L16.4328 6.04167C14.4105 6.96219 12.5479 8.19698 10.9145 9.7L7.93796 6.73333L6.75571 7.91167L9.73224 10.8783C8.27972 12.4455 7.07625 14.225 6.16375 16.155L2.29092 14.5292L1.64127 16.065L5.51243 17.69C4.73015 19.7649 4.28743 21.9517 4.20142 24.1667H0V25.8333H4.20142C4.28367 27.9671 4.6966 30.0754 5.42547 32.0833L1.53843 33.6592L2.16885 35.2033L6.06258 33.62C6.98564 35.6355 8.22433 37.4921 9.73224 39.12L6.75571 42.0867L7.93796 43.265L10.9145 40.2983C12.4869 41.746 14.2723 42.9455 16.2087 43.855L14.5775 47.7167L16.1184 48.3642L17.7488 44.5058C19.8306 45.2855 22.0246 45.7268 24.247 45.8125V50H25.9192V45.8125C28.06 45.7305 30.1754 45.319 32.19 44.5925L33.7786 48.4675L35.3262 47.8383L33.7376 43.9583C35.7598 43.0378 37.6224 41.803 39.2559 40.3L42.2324 43.2667L43.4146 42.0883L40.4381 39.1217C41.8906 37.5545 43.0941 35.775 44.0066 33.845L47.8794 35.4708L48.5291 33.935L44.6579 32.31C45.4388 30.2348 45.88 28.048 45.9647 25.8333H50.1662ZM25.0831 44.1667C14.4625 44.1667 5.85272 35.5854 5.85272 25C5.85272 14.4146 14.4625 5.83333 25.0831 5.83333C35.7037 5.83333 44.3134 14.4146 44.3134 25C44.3014 35.5805 35.6988 44.1547 25.0831 44.1667Z" fill="white"/>
<path d="M11.447 1.98112C8.85054 -0.638043 4.61558 -0.66346 1.98771 1.92435C-0.640162 4.51217 -0.665665 8.7331 1.93075 11.3523C1.94977 11.3714 1.9689 11.3905 1.98813 11.4095C2.83301 12.3227 4.01453 12.8537 5.26063 12.8803C5.61974 12.8795 5.97738 12.8353 6.32583 12.7486C7.84335 12.2811 9.20463 11.4108 10.2639 10.2311C14.1735 6.33529 13.0657 3.59446 11.447 1.98112ZM9.08162 9.05279C8.2311 10.0095 7.1428 10.7259 5.92617 11.1303C4.91062 11.3807 3.84072 11.0316 3.17038 10.2311C1.21107 8.27852 1.21086 5.11269 3.16996 3.15987C5.12905 1.20706 8.3054 1.20685 10.2647 3.15946C11.2797 4.17196 12.2622 5.88362 9.08162 9.05279Z" transform="translate(13.1044 13.0606)" fill="white"/>
<path d="M1.67221 0H0V1.66667H1.67221V0Z" transform="translate(20.9026 17.5)" fill="white"/>
<path d="M1.67221 0H0V1.66667H1.67221V0Z" transform="translate(32.608 22.5)" fill="white"/>
<path d="M1.67221 0H0V1.66667H1.67221V0Z" transform="translate(21.7386 32.5)" fill="white"/>
<path d="M1.67221 0H0V1.66667H1.67221V0Z" transform="translate(31.7719 34.1667)" fill="white"/>
<path d="M1.67221 0H0V1.66667H1.67221V0Z" transform="translate(24.2469 25)" fill="white"/>
<path d="M1.67221 0H0V1.66667H1.67221V0Z" transform="translate(12.5416 27.5)" fill="white"/>
<path d="M1.67221 0H0V1.66667H1.67221V0Z" transform="translate(28.4275 13.3333)" fill="white"/>
<path d="M4.18051 0C0 0 0 4.39083 0 5.83333C0 7.27583 0 11.6667 4.18051 11.6667C7.41289 11.6667 10.0332 9.055 10.0332 5.83333C10.0332 2.61167 7.41289 0 4.18051 0ZM4.18051 10C2.67553 10 1.67221 9.29167 1.67221 5.83333C1.67221 2.375 2.67553 1.66667 4.18051 1.66667C6.48931 1.66667 8.36103 3.53219 8.36103 5.83333C8.36103 8.13448 6.48931 10 4.18051 10Z" transform="translate(28.4275 19.1667)" fill="white"/>
<path d="M9.73064 4.90781C9.48598 3.71354 8.87123 2.62604 7.97315 1.79864C7.14311 0.903748 6.0519 0.291562 4.85366 0.0486456C3.60253 -0.153229 2.33291 0.281041 1.46995 1.20615C-0.489982 3.15958 -0.489982 6.32687 1.46995 8.28031C3.42988 10.2337 6.60769 10.2337 8.56762 8.28031C9.49591 7.42021 9.93225 6.155 9.73064 4.90781ZM7.38203 7.10198C6.05796 8.35968 3.97637 8.35968 2.6522 7.10198C1.3461 5.80031 1.346 3.68969 2.65209 2.38792L2.6522 2.38781C3.05687 1.94042 3.62897 1.67948 4.23327 1.66698C4.35252 1.66708 4.47166 1.67656 4.58945 1.69531C5.4383 1.88604 6.20731 2.33375 6.79091 2.97698C7.43648 3.55854 7.88568 4.325 8.07683 5.17114C8.19169 5.89083 7.92968 6.61916 7.38203 7.10198Z" transform="translate(17.0171 27.8772)" fill="white"/>
</svg>
