<svg width="41" height="50" viewBox="0 0 41 50" fill="none" xmlns="http://www.w3.org/2000/svg">
<path d="M38.5813 5.07927L22.2525 0.279565C20.9848 -0.0931884 19.6441 -0.0931884 18.3761 0.279565L2.0475 5.07917C0.841948 5.43346 -1.79408e-07 6.55573 -1.79408e-07 7.80846V21.2864C-1.79408e-07 27.5239 1.86291 33.53 5.38737 38.6555C8.82825 43.6597 13.6169 47.5095 19.235 49.7883C19.583 49.9294 19.9487 50 20.3143 50C20.68 50 21.0457 49.9293 21.3936 49.7883C27.0117 47.5095 31.8003 43.6599 35.2412 38.6555C38.7656 33.5299 40.6285 27.5239 40.6285 21.2864V7.80856C40.6287 6.55583 39.7867 5.43346 38.5813 5.07927ZM38.3447 21.2863C38.3447 27.0623 36.6201 32.6235 33.3574 37.3684C30.1701 42.0037 25.7355 45.5693 20.5328 47.6796C20.3919 47.7367 20.2368 47.7367 20.0959 47.6796C14.8933 45.5693 10.4586 42.0038 7.27134 37.3684C4.00868 32.6235 2.28403 27.0624 2.28403 21.2863V7.80846C2.28403 7.55797 2.45246 7.33356 2.69359 7.26266L19.0223 2.46296C19.4449 2.33864 19.8797 2.27663 20.3144 2.27663C20.7491 2.27663 21.1838 2.33874 21.6065 2.46306L37.9354 7.26266C38.1763 7.33346 38.3447 7.55787 38.3447 7.80846V21.2863Z" fill="white"/>
<path d="M26.5367 3.64702L14.3669 0.0698733C14.05 -0.023193 13.7151 -0.0233883 13.3981 0.0698733L1.22858 3.64702C0.505286 3.85971 2.93033e-07 4.53315 2.93033e-07 5.28471V14.8205C2.93033e-07 19.8594 1.52928 24.6924 4.42226 28.7973C6.66523 31.9802 9.66236 34.608 13.0894 36.3969C13.3377 36.5266 13.6101 36.5913 13.8826 36.5913C14.155 36.5913 14.4274 36.5266 14.6757 36.3969C18.1027 34.6081 21.0998 31.9801 23.3429 28.7973C26.2359 24.6925 27.7652 19.8594 27.7652 14.8205V5.28471C27.7651 4.53295 27.2599 3.85961 26.5367 3.64702ZM25.4812 14.8205C25.4812 19.3886 24.0956 23.7693 21.4741 27.4888C19.4977 30.2932 16.8777 32.6218 13.8826 34.2388C10.8875 32.6217 8.26741 30.2932 6.29104 27.4888C3.66957 23.7693 2.28393 19.3886 2.28393 14.8205V5.7102L13.8826 2.30083L25.4812 5.7102V14.8205Z" transform="translate(6.43188 6.46575)" fill="white"/>
</svg>
