<svg width="65" height="50" viewBox="0 0 65 50" fill="none" xmlns="http://www.w3.org/2000/svg">
<path d="M64.3259 26.3846C64.1675 25.8298 63.5899 25.5092 63.0369 25.6671L56.2443 27.6116C55.7979 27.7394 55.3294 27.7294 54.8889 27.582L49.7087 25.8521C49.2614 25.7028 48.7955 25.627 48.324 25.627H43.7106C43.4331 24.9804 43.1266 24.3404 42.7903 23.7149C42.6263 23.4097 42.4557 23.1139 42.2821 22.8227L50.6819 19.0826C51.3957 18.7649 52.0128 18.2603 52.4669 17.6234L56.8775 11.4373C57.4112 10.6889 57.6933 9.80702 57.6933 8.88696V7.72971C57.6933 7.15269 57.2266 6.68513 56.6506 6.68513C56.0747 6.68513 55.608 7.15269 55.608 7.72971V8.88696C55.608 9.36885 55.4602 9.8307 55.1808 10.2228L50.77 16.409C50.5323 16.7427 50.2091 17.0068 49.8351 17.1732L41.1108 21.0579C40.3548 20.0354 39.5392 19.1333 38.6818 18.375L48.6872 11.3583C49.3228 10.9126 49.8476 10.3485 50.247 9.68167L52.462 5.98318C52.9742 5.1283 53.2447 4.14947 53.2447 3.15266V1.04457C53.2447 0.467551 52.778 -1.53014e-07 52.202 -1.53014e-07C51.6261 -1.53014e-07 51.1594 0.467551 51.1594 1.04457V3.1528C51.1594 3.77105 50.9916 4.37816 50.6739 4.90838L48.4587 8.60701C48.2111 9.02066 47.8856 9.37039 47.4914 9.64685L37.146 16.902C37.0729 16.9533 37.0095 17.0129 36.9539 17.0777C36.8222 16.9955 36.6899 16.9181 36.5571 16.8426C37.271 14.7438 36.7151 10.8446 35.3181 8.33528C35.1589 8.04921 34.875 7.85464 34.5512 7.80951C34.2266 7.76467 33.9013 7.874 33.6701 8.10548L32.1832 9.59532L30.6962 8.10548C30.465 7.874 30.1389 7.76439 29.8151 7.80951C29.4914 7.85464 29.2075 8.04935 29.0483 8.33528C27.6513 10.8446 27.0954 14.744 27.8092 16.8426C27.6765 16.9181 27.5441 16.9955 27.4125 17.0777C27.3569 17.0129 27.2935 16.9533 27.2203 16.902L16.875 9.64685C16.4807 9.37053 16.1553 9.02066 15.9077 8.60701L13.6923 4.90824C13.3747 4.37802 13.207 3.77105 13.207 3.1528V1.04457C13.207 0.467551 12.7403 -1.53014e-07 12.1643 -1.53014e-07C11.5884 -1.53014e-07 11.1217 0.467551 11.1217 1.04457V3.1528C11.1217 4.14961 11.3922 5.12858 11.9042 5.98318L14.1193 9.68181C14.5187 10.3487 15.0434 10.9127 15.6791 11.3584L25.6846 18.3752C24.8271 19.1334 24.0115 20.0355 23.2555 21.0581L14.5311 17.1732C14.1574 17.0069 13.8341 16.7427 13.5962 16.4091L9.18555 10.2228C8.90598 9.83097 8.75835 9.36899 8.75835 8.8871V7.72985C8.75835 7.15283 8.29166 6.68527 7.71571 6.68527C7.13975 6.68527 6.67306 7.15283 6.67306 7.72985V8.8871C6.67306 9.80702 6.95513 10.6889 7.48883 11.4373L11.8993 17.6235C12.3535 18.2603 12.9706 18.7649 13.6843 19.0826L22.0843 22.8228C21.9107 23.1141 21.7401 23.4099 21.576 23.715C21.2397 24.3405 20.9332 24.9804 20.6557 25.6272H16.0424C15.5708 25.6272 15.105 25.7029 14.6576 25.8522L9.47763 27.5822C9.03722 27.7293 8.56831 27.7394 8.12206 27.6116L1.32932 25.667C0.775742 25.5089 0.198396 25.8297 0.0403316 26.3844C-0.117733 26.9391 0.202845 27.5173 0.756418 27.6758L7.54902 29.6199C7.94439 29.7332 8.3488 29.7897 8.75293 29.7897C9.21961 29.7897 9.68602 29.7142 10.1369 29.5638L15.317 27.8339C15.5512 27.7556 15.7952 27.7159 16.0422 27.7159H19.8735C19.3367 29.3844 19.0115 31.0493 18.9298 32.596L16.9695 33.2506C16.3104 33.4707 15.7485 33.8864 15.3442 34.4533L10.3108 41.5133C10.2732 41.5658 10.231 41.6158 10.185 41.6619L3.64231 48.2167C3.23513 48.6248 3.23513 49.2861 3.64231 49.694C3.84597 49.8979 4.11289 49.9999 4.37967 49.9999C4.64645 49.9999 4.91336 49.8979 5.11702 49.694L11.6597 43.1392C11.7867 43.0118 11.9041 42.8732 12.0081 42.7273L17.0412 35.6676C17.1875 35.4626 17.3909 35.312 17.6291 35.2325L18.9832 34.7803C19.6947 41.4474 25.3427 46.6574 32.1833 46.6574C39.0239 46.6574 44.6719 41.4474 45.3834 34.7803L46.7375 35.2325C46.9759 35.312 47.1793 35.4626 47.3254 35.6675L52.3586 42.7271C52.4627 42.8734 52.58 43.0119 52.7071 43.1394L59.2497 49.6941C59.4534 49.898 59.7203 50 59.9871 50C60.2539 50 60.5208 49.898 60.7245 49.6941C61.1316 49.2861 61.1316 48.6248 60.7245 48.2168L54.1818 41.6621C54.1358 41.616 54.0934 41.566 54.0559 41.5132L49.0224 34.4533C48.6183 33.8867 48.0564 33.4708 47.3973 33.2507L45.437 32.5961C45.3552 31.0495 45.0301 29.3846 44.4933 27.716H48.3245C48.5714 27.716 48.8155 27.7557 49.0498 27.834L54.23 29.564C54.6807 29.7145 55.147 29.7899 55.6138 29.7899C56.018 29.7899 56.4224 29.7335 56.8177 29.6202L63.6103 27.6759C64.1634 27.5174 64.4841 26.9393 64.3259 26.3846ZM30.2907 10.6538L31.4458 11.8112C31.8531 12.219 32.5132 12.219 32.9204 11.8112L34.0755 10.6538C34.8027 12.6992 34.9788 15.1853 34.5515 16.2557C34.5401 16.2841 34.5308 16.3129 34.5222 16.3416C33.9863 16.463 33.4948 16.7912 33.163 17.2962C32.9446 17.6288 32.5783 17.8273 32.1832 17.8273C31.7881 17.8273 31.4218 17.6287 31.2034 17.2961C30.8717 16.7912 30.3801 16.4629 29.8442 16.3415C29.8354 16.3128 29.8261 16.2841 29.8148 16.2557C29.3874 15.1855 29.5635 12.6992 30.2907 10.6538ZM32.183 44.5685C26.0123 44.5685 20.992 39.5389 20.992 33.3567C20.992 28.174 24.572 20.6685 29.363 18.3816C29.3655 18.3803 29.3685 18.3798 29.3719 18.3798C29.3933 18.3798 29.4328 18.4012 29.4612 18.4444C30.0665 19.3661 31.0841 19.9164 32.183 19.9164C33.282 19.9164 34.2996 19.3661 34.9049 18.4445C34.938 18.3943 34.9861 18.3739 35.003 18.3814C39.794 20.6685 43.3741 28.174 43.3741 33.3566C43.3741 39.5389 38.3538 44.5685 32.183 44.5685Z" fill="white"/>
</svg>
