<?xml version="1.0" encoding="utf-8" ?>
<svg xmlns="http://www.w3.org/2000/svg" xmlns:xlink="http://www.w3.org/1999/xlink" width="89" height="19">
	<defs>
		<clipPath id="clip_0">
			<rect x="-485" y="-1504" width="1600" height="1635" clip-rule="evenodd"/>
		</clipPath>
	</defs>
	<g clip-path="url(#clip_0)">
		<path fill="rgb(255,255,255)" stroke="none" transform="translate(0 4.70587)" d="M14.5781 1.82937C11.7261 3.62451 11.9962 7.72459 15.0792 9.12801C14.9778 9.39644 14.8832 9.66988 14.7722 9.93652C14.3122 11.0412 13.6661 12.0323 12.8962 12.9426C12.4681 13.4488 11.9675 13.862 11.2857 13.9796C10.7641 14.0696 10.2682 13.9685 9.78096 13.7757C9.38263 13.6181 8.98415 13.4421 8.56894 13.3501C7.85456 13.1919 7.15307 13.2962 6.46975 13.5674C6.04058 13.7378 5.601 13.8936 5.15304 14.0022C4.60786 14.1344 4.08859 13.9813 3.66972 13.6308C3.26329 13.2908 2.87852 12.9108 2.54668 12.4982C1.22278 10.852 0.414252 8.9708 0.108601 6.8814C-0.0998309 5.4567 -0.0459691 4.04548 0.605724 2.73057C1.44565 1.03578 2.8063 0.0926649 4.73193 0.0577695C5.24559 0.0484942 5.7261 0.225466 6.20135 0.403613C6.53859 0.530032 6.87452 0.660302 7.21462 0.778512C7.51197 0.881842 7.814 0.882258 8.11219 0.773233C8.6 0.594814 9.08548 0.409797 9.5752 0.236785C11.2957 -0.371154 13.3826 0.224417 14.4487 1.64656C14.4934 1.70611 14.5348 1.76811 14.5781 1.82937Z"/>
	</g>
	<defs>
		<clipPath id="clip_1">
			<rect x="-485" y="-1504" width="1600" height="1635" clip-rule="evenodd"/>
		</clipPath>
	</defs>
	<g clip-path="url(#clip_1)">
		<path fill="rgb(255,255,255)" stroke="none" transform="translate(7.52941 0)" d="M0.0310642 4.29061C-0.0350381 3.82111 0.0062939 3.40224 0.136582 2.99778C0.649236 1.40626 1.72273 0.417133 3.35484 0.0445841C3.74357 -0.0441549 3.75143 -0.029781 3.75102 0.363886C3.74912 2.12039 2.44611 3.81762 0.795544 4.19829C0.550752 4.25474 0.29419 4.26018 0.0310642 4.29061Z"/>
	</g>
	<defs>
		<clipPath id="clip_2">
			<rect x="-485" y="-1504" width="1600" height="1635" clip-rule="evenodd"/>
		</clipPath>
	</defs>
	<g clip-path="url(#clip_2)">
		<text fill="rgb(255,255,255)" stroke="none" transform="translate(26 3)" font-size="14" font-weight="bold" font-family="Segoe UI Semibold, Segoe UI" x="0" y="14.998047">
				App Store
		</text>
	</g>
</svg>
