<?xml version="1.0" encoding="utf-8" ?>
<svg xmlns="http://www.w3.org/2000/svg" xmlns:xlink="http://www.w3.org/1999/xlink" width="9" height="16">
	<defs>
		<clipPath id="clip_0">
			<rect x="-180.95264" y="-752.10101" width="1440" height="1471.5" clip-rule="evenodd"/>
		</clipPath>
	</defs>
	<g clip-path="url(#clip_0)">
		<path fill="rgb(255,255,255)" stroke="none" transform="matrix(0.9 0 0 0.9 -0.00498962 0.304504)" d="M5.77673 15.99L5.77673 8.69599L8.40372 8.69599L8.79413 5.85497L5.77673 5.85497L5.77673 4.03919C5.77673 3.21776 6.02156 2.65574 7.28543 2.65574L8.9 2.65574L8.9 0.11117C8.62208 0.0741136 7.6626 0 6.55093 0C4.22171 0 2.63361 1.32787 2.63361 3.76126L2.63361 5.86115L0 5.86115L0 8.70217L2.63361 8.70217L2.63361 15.99L5.77673 15.99L5.77673 15.99Z"/>
	</g>
</svg>
