<?xml version="1.0" encoding="utf-8" ?>
<svg xmlns="http://www.w3.org/2000/svg" xmlns:xlink="http://www.w3.org/1999/xlink" width="16" height="16">
	<defs>
		<clipPath id="clip_0">
			<rect x="-377" y="-836" width="1600" height="1635" clip-rule="evenodd"/>
		</clipPath>
	</defs>
	<g clip-path="url(#clip_0)">
		<path fill="rgb(255,255,255)" stroke="none" d="M14.6471 1.34054C15.0919 1.78533 15.3637 2.23012 15.5676 2.75521C15.7653 3.26178 15.9012 3.84247 15.9382 4.69498C15.9815 5.54749 15.9876 5.8193 15.9876 7.99382C15.9876 10.1683 15.9753 10.4402 15.9382 11.2927C15.9012 12.139 15.7653 12.7259 15.5676 13.2324C15.3637 13.7575 15.0919 14.2023 14.6471 14.6471C14.2023 15.0919 13.7575 15.3637 13.2324 15.5676C12.7259 15.7653 12.1452 15.9012 11.2927 15.9382C10.4402 15.9815 10.1683 15.9876 7.99382 15.9876C5.8193 15.9876 5.54749 15.9753 4.69498 15.9382C3.84865 15.9012 3.26178 15.7653 2.75521 15.5676C2.23012 15.3637 1.78533 15.0919 1.34054 14.6471C0.895753 14.2023 0.623938 13.7575 0.420077 13.2324C0.222394 12.7259 0.0864865 12.1452 0.0494208 11.2927C0.00617761 10.4402 0 10.1683 0 7.99382C0 5.8193 0.0123552 5.54749 0.0494208 4.69498C0.0864865 3.84865 0.222394 3.26178 0.420077 2.75521C0.623938 2.23012 0.895753 1.78533 1.34054 1.34054C1.78533 0.895753 2.23012 0.623938 2.75521 0.420077C3.26178 0.222394 3.84247 0.0864865 4.69498 0.0494208C5.54749 0.00617761 5.8193 0 7.99382 0C10.1683 0 10.4402 0.0123552 11.2927 0.0494208C12.139 0.0864865 12.7259 0.222394 13.2324 0.420077C13.7575 0.623938 14.2023 0.895753 14.6471 1.34054ZM14.2208 12.7073C14.332 12.4293 14.4618 12.0031 14.4988 11.2247C14.5359 10.3846 14.5483 10.1251 14.5483 7.99382C14.5483 5.86255 14.5359 5.60927 14.4988 4.76293C14.4618 3.98456 14.332 3.56448 14.2208 3.28031C14.0726 2.90347 13.8996 2.63784 13.6216 2.35985C13.3436 2.08185 13.0718 1.9027 12.7012 1.76062C12.4232 1.64942 11.9969 1.51969 11.2185 1.48263C10.3784 1.43938 10.1189 1.4332 7.98765 1.4332C5.85637 1.4332 5.60309 1.44556 4.75676 1.48263C3.97838 1.51969 3.5583 1.64942 3.27413 1.76062C2.8973 1.90888 2.63166 2.08185 2.35367 2.35985C2.07568 2.63784 1.89653 2.90965 1.75444 3.28031C1.64324 3.5583 1.51351 3.98456 1.47645 4.76293C1.4332 5.60309 1.42703 5.86255 1.42703 7.99382C1.42703 10.1251 1.43938 10.3784 1.47645 11.2247C1.51351 12.0031 1.64324 12.4232 1.75444 12.7073C1.9027 13.0842 2.07568 13.3498 2.35367 13.6278C2.63166 13.9058 2.90347 14.0849 3.27413 14.227C3.55212 14.3382 3.97838 14.468 4.75676 14.505C5.59691 14.5483 5.85019 14.5544 7.98765 14.5544C10.1251 14.5544 10.3722 14.5421 11.2185 14.505C11.9969 14.468 12.417 14.3382 12.7012 14.227C13.078 14.0788 13.3436 13.9058 13.6216 13.6278C13.8996 13.3498 14.0788 13.078 14.2208 12.7073Z" fill-rule="evenodd"/>
	</g>
	<defs>
		<clipPath id="clip_1">
			<rect x="-377" y="-836" width="1600" height="1635" clip-rule="evenodd"/>
		</clipPath>
	</defs>
	<g clip-path="url(#clip_1)">
		<path fill="rgb(255,255,255)" stroke="none" transform="translate(4 4)" d="M0 4.10811C0 1.84093 1.84093 0 4.10811 0C6.37529 0 8.21622 1.84093 8.21622 4.10811C8.21622 6.37529 6.37529 8.21622 4.10811 8.21622C1.84093 8.21622 0 6.37529 0 4.10811ZM1.43938 4.10811C1.43938 5.58456 2.63784 6.77683 4.10811 6.77683C5.57838 6.77683 6.77683 5.57838 6.77683 4.10811C6.77683 2.63166 5.58456 1.43938 4.10811 1.43938C2.63166 1.43938 1.43938 2.63784 1.43938 4.10811Z" fill-rule="evenodd"/>
	</g>
	<defs>
		<clipPath id="clip_2">
			<rect x="-377" y="-836" width="1600" height="1635" clip-rule="evenodd"/>
		</clipPath>
	</defs>
	<g clip-path="url(#clip_2)">
		<path fill="rgb(255,255,255)" stroke="none" transform="translate(12 3)" d="M0.957529 1.91506C1.48636 1.91506 1.91506 1.48636 1.91506 0.957529C1.91506 0.4287 1.48636 0 0.957529 0C0.4287 0 0 0.4287 0 0.957529C0 1.48636 0.4287 1.91506 0.957529 1.91506Z"/>
	</g>
</svg>
