<?xml version="1.0" encoding="utf-8" ?>
<svg xmlns="http://www.w3.org/2000/svg" xmlns:xlink="http://www.w3.org/1999/xlink" width="27" height="16">
	<defs>
		<clipPath id="clip_0">
			<rect x="-880" y="-1507" width="1600" height="1635" clip-rule="evenodd"/>
		</clipPath>
	</defs>
	<g clip-path="url(#clip_0)">
		<path fill="rgb(255,255,255)" stroke="none" transform="translate(5.39999 8.53333)" d="M0 0.48C0 0.693333 0.108 0.8 0.324 0.8C0.702 0.8 0.918 0.48 0.972 0C0.864 0 0.864 0 0.756 0C0.27 0 0 0.16 0 0.48Z"/>
	</g>
	<defs>
		<clipPath id="clip_1">
			<rect x="-880" y="-1507" width="1600" height="1635" clip-rule="evenodd"/>
		</clipPath>
	</defs>
	<g clip-path="url(#clip_1)">
		<path fill="rgb(255,255,255)" stroke="none" transform="translate(18.9 8.53333)" d="M0 0.48C0 0.693333 0.108 0.8 0.324 0.8C0.702 0.8 0.918 0.48 0.972 0C0.864 0 0.864 0 0.756 0C0.216 0 0 0.16 0 0.48Z"/>
	</g>
	<defs>
		<clipPath id="clip_2">
			<rect x="-880" y="-1507" width="1600" height="1635" clip-rule="evenodd"/>
		</clipPath>
	</defs>
	<g clip-path="url(#clip_2)">
		<path fill="rgb(255,255,255)" stroke="none" transform="translate(11.88 7.46667)" d="M0.54 0C0.27 0 0.054 0.213333 0 0.586667L0.972 0.586667C0.972 0.48 1.08 0 0.54 0Z"/>
	</g>
	<defs>
		<clipPath id="clip_3">
			<rect x="-880" y="-1507" width="1600" height="1635" clip-rule="evenodd"/>
		</clipPath>
	</defs>
	<g clip-path="url(#clip_3)">
		<path fill="rgb(255,255,255)" stroke="none" transform="translate(23.76 7.46667)" d="M0.702 0C0.324 0 0 0.48 0 1.12C0 1.54667 0.162 1.76 0.432 1.76C0.864 1.76 1.134 1.28 1.134 0.64C1.188 0.213333 1.026 0 0.702 0Z"/>
	</g>
	<defs>
		<clipPath id="clip_4">
			<rect x="-880" y="-1507" width="1600" height="1635" clip-rule="evenodd"/>
		</clipPath>
	</defs>
	<g clip-path="url(#clip_4)">
		<path fill="rgb(255,255,255)" stroke="none" d="M18.792 0C16.74 0 14.85 0.746667 13.392 2.02667C11.988 0.746667 10.098 0 8.046 0C3.618 0 0 3.57333 0 7.94667C0 12.32 3.618 15.8933 8.046 15.8933C10.098 15.8933 11.988 15.1467 13.392 13.8667C14.796 15.1467 16.686 15.8933 18.792 15.8933C23.22 15.8933 26.838 12.32 26.838 7.94667C26.838 3.57333 23.22 0 18.792 0ZM18.144 10.0267C17.82 10.1333 17.604 10.1333 17.388 10.1333C16.47 10.1333 15.876 9.44 15.876 8.37333C15.876 6.93333 16.686 5.92 17.874 5.92C18.252 5.92 18.684 6.08 18.846 6.13333L18.684 6.98667C18.36 6.82667 18.144 6.77333 17.928 6.77333C17.28 6.77333 16.794 7.41333 16.794 8.26667C16.794 8.85333 17.118 9.22667 17.604 9.22667C17.82 9.22667 18.036 9.17333 18.36 9.01333L18.144 10.0267ZM24.633 10.0267L24.624 10.08L24.624 10.0267L24.633 10.0267ZM24.678 9.76L24.633 10.0267L25.434 10.0267L26.082 5.97333L25.218 5.97333L25.002 7.14667C24.786 6.88 24.516 6.72 24.192 6.72C23.436 6.72 22.788 7.68 22.788 8.74667C22.788 9.6 23.22 10.1333 23.868 10.1333C24.192 10.1333 24.462 10.0267 24.678 9.76ZM3.888 6.98667L2.754 10.08L2.16 10.08L2.106 6.98667L1.566 10.08L0.756 10.08L1.458 6.02667L2.7 6.02667L2.754 8.53333L3.618 6.02667L4.968 6.02667L4.266 10.08L3.402 10.08L3.888 6.98667ZM11.016 9.28C10.962 9.33333 10.908 9.33333 10.8 9.33333C10.638 9.33333 10.53 9.22667 10.422 9.06667C10.422 8.96 10.584 8.21333 10.692 7.57333L11.124 7.57333L11.232 6.77333L10.8 6.77333L10.908 6.29333L10.044 6.29333L9.666 8.53333C9.612 8.85333 9.558 9.22667 9.558 9.38667C9.558 9.86667 9.828 10.1333 10.26 10.1333C10.476 10.1333 10.692 10.08 10.908 10.0267L11.016 9.28ZM6.318 9.76L6.318 10.08C6.318 10.08 6.912 10.08 7.02 10.0267C7.074 9.76 7.236 8.74667 7.29 8.26667C7.344 8 7.344 7.78667 7.344 7.62667Q7.344 6.66667 6.21 6.66667C5.886 6.66667 5.616 6.72 5.184 6.82667C5.184 6.82667 5.076 7.52 5.076 7.57333C5.238 7.52 5.562 7.41333 5.994 7.41333C6.372 7.41333 6.534 7.52 6.534 7.73333C6.534 7.78667 6.534 7.84 6.48 7.94667L6.102 7.94667C5.13 7.94667 4.59 8.42667 4.59 9.22667C4.59 9.76 4.914 10.1333 5.4 10.1333C5.778 10.1333 6.102 10.0267 6.318 9.76ZM8.91 8.10667C9.342 8.32 9.504 8.58667 9.504 9.01333C9.504 9.76 9.072 10.1333 8.154 10.1333C7.614 10.1333 7.452 10.08 7.236 10.0267C7.236 9.97333 7.344 9.28 7.344 9.28C7.614 9.38667 7.884 9.38667 8.154 9.38667Q8.64 9.38667 8.64 9.06667C8.64 8.90667 8.586 8.85333 8.208 8.69333C7.722 8.48 7.56 8.21333 7.56 7.78667C7.56 7.2 7.884 6.66667 8.856 6.66667C9.072 6.66667 9.396 6.72 9.612 6.72L9.504 7.46667C9.288 7.41333 9.072 7.41333 8.856 7.41333C8.586 7.41333 8.424 7.52 8.424 7.68C8.478 7.89333 8.532 7.94667 8.91 8.10667ZM12.852 9.38667C13.176 9.38667 13.446 9.33333 13.77 9.17333L13.608 9.97333C13.284 10.08 13.014 10.08 12.69 10.08Q11.232 10.08 11.232 8.64C11.232 7.52 11.88 6.66667 12.744 6.66667C13.446 6.66667 13.932 7.14667 13.932 7.84C13.932 8.10667 13.878 8.32 13.824 8.64L12.096 8.64C12.042 9.17333 12.366 9.38667 12.852 9.38667ZM20.142 10.08L20.844 10.08C20.844 9.81333 21.006 8.8 21.114 8.26667C21.168 8 21.168 7.78667 21.168 7.62667Q21.168 6.66667 20.034 6.66667C19.71 6.66667 19.44 6.72 19.008 6.82667C19.008 6.82667 18.9 7.52 18.9 7.57333C19.062 7.52 19.386 7.41333 19.818 7.41333C20.196 7.41333 20.358 7.52 20.358 7.73333C20.358 7.78667 20.358 7.84 20.304 7.94667L19.926 7.94667C18.954 7.94667 18.414 8.42667 18.414 9.22667C18.414 9.76 18.738 10.1333 19.224 10.1333C19.602 10.1333 19.926 10.0267 20.142 9.76L20.142 10.08ZM13.932 10.08L14.796 10.08L14.8059 10.0183C15.1212 8.04573 15.1795 7.68055 15.714 7.73333C15.768 7.30667 15.93 6.93333 16.038 6.77333C15.66 6.72 15.444 6.93333 15.174 7.30667C15.174 7.14667 15.228 6.98667 15.228 6.82667L14.418 6.82667C14.31 7.84 14.148 8.85333 13.986 9.86667L13.932 10.08ZM22.032 10.08L21.168 10.08L21.222 9.86667C21.384 8.85333 21.546 7.84 21.654 6.82667L22.464 6.82667C22.464 6.98667 22.41 7.14667 22.41 7.30667C22.68 6.93333 22.896 6.72 23.274 6.77333C23.166 6.93333 23.004 7.30667 22.95 7.73333C22.41 7.68 22.302 8.05333 22.032 10.08Z" fill-rule="evenodd"/>
	</g>
</svg>
