<?xml version="1.0" encoding="utf-8" ?>
<svg xmlns="http://www.w3.org/2000/svg" xmlns:xlink="http://www.w3.org/1999/xlink" width="14" height="16">
	<defs>
		<clipPath id="clip_0">
			<rect x="-927" y="-1507" width="1600" height="1635" clip-rule="evenodd"/>
		</clipPath>
	</defs>
	<g clip-path="url(#clip_0)">
		<path fill="rgb(255,255,255)" stroke="none" transform="translate(0.00445557 0)" d="M11.9047 5.35714C12.1872 4.58929 12.3284 3.8869 12.3284 3.25Q12.3284 2.23214 11.808 1.5Q11.2876 0.767857 10.3021 0.401786C10.0074 0.28869 9.66504 0.193452 9.27513 0.116071C8.88522 0.0386905 8.58588 0 8.3771 0L2.86921 0Q2.60211 -3.72529e-09 2.39487 0.169643C2.25671 0.282738 2.17228 0.425595 2.14158 0.598214L0.00473684 13.7321C-0.0136842 13.8631 0.0216228 13.9777 0.110658 14.0759C0.199693 14.1741 0.311754 14.2232 0.446842 14.2232L3.16395 14.2232C3.23149 14.2232 3.26833 14.1935 3.27447 14.1339Q4.03895 9.47321 4.05737 9.40179C4.16789 8.83036 4.53018 8.54464 5.14421 8.54464L5.97316 8.55357Q6.8021 8.55357 6.8021 8.54464C7.65561 8.53274 8.4293 8.40774 9.12316 8.16964C10.4863 7.68155 11.4135 6.74405 11.9047 5.35714ZM13.8758 7.58929C14.0109 6.875 14.0232 6.26786 13.9126 5.76786C13.796 5.15476 13.4951 4.67262 13.01 4.32143C12.9854 4.30357 12.967 4.29315 12.9547 4.29018C12.9425 4.2872 12.9317 4.29018 12.9225 4.29911C12.9133 4.30804 12.9056 4.33036 12.8995 4.36607Q12.7982 4.92857 12.5771 5.55357C12.2517 6.45238 11.7758 7.18452 11.1495 7.75Q10.1179 8.6875 8.50605 9.03572Q7.55737 9.24107 6.33237 9.22322L5.12579 9.22322Q4.77579 9.22322 4.72974 9.55357C4.67447 9.8869 4.59158 10.3854 4.48105 11.0491C4.37053 11.7128 4.28763 12.2113 4.23237 12.5446C4.17711 12.878 4.09575 13.378 3.98829 14.0446Q3.82711 15.0446 3.74421 15.5446C3.72579 15.6696 3.75342 15.7768 3.82711 15.8661C3.90079 15.9554 4.00211 16 4.13105 16L6.44289 16C6.5964 16 6.73303 15.9509 6.85276 15.8527C6.9725 15.7545 7.04772 15.628 7.07842 15.4732L7.09684 15.3393L7.60342 12.25L7.64026 12.0804C7.67096 11.9256 7.74465 11.7991 7.86132 11.7009C7.97798 11.6027 8.11307 11.5536 8.26658 11.5536L8.67184 11.5536Q13.0745 11.5536 13.8758 7.58929Z" fill-rule="evenodd"/>
	</g>
</svg>
