<?xml version="1.0" encoding="utf-8" ?>
<svg xmlns="http://www.w3.org/2000/svg" xmlns:xlink="http://www.w3.org/1999/xlink" width="19" height="17">
	<defs>
		<clipPath id="clip_0">
			<rect x="-912.96545" y="-1431.2485" width="1520" height="1553.25" clip-rule="evenodd"/>
		</clipPath>
	</defs>
	<g clip-path="url(#clip_0)">
		<path fill="rgb(255,255,255)" stroke="none" transform="matrix(0.95 0 0 0.95 -0.0012207 0.425018)" d="M9.50006 3.26971L15.1724 0C15.4251 0.18256 15.6268 0.367359 15.8609 0.581626L9.50006 4.26353L3.13885 0.592513L3.78466 0.0108903L9.50006 3.26971ZM9.50006 5.23974L16.4823 1.20104C16.6676 1.40378 16.8578 1.64463 17.0292 1.87074L9.50006 6.22043L1.93232 1.87074C2.1051 1.63758 2.29425 1.40986 2.49817 1.19496L9.50006 5.23974ZM17.5106 2.57599L9.50006 7.19599L1.44097 2.5683C1.29196 2.8146 1.14521 3.06633 1.02156 3.32352L9.50006 8.19045L17.9169 3.32031C17.7865 3.06633 17.6571 2.80883 17.5106 2.57599ZM9.50006 9.18427L18.2721 4.11076C18.6973 5.1664 18.95 6.35462 18.95 7.54637C18.95 12.7486 14.6913 17 9.47532 17C4.25803 17 0 12.7486 0 7.54637C0 6.33028 0.245992 5.15935 0.670553 4.09186L9.50006 9.18427Z" fill-rule="evenodd"/>
	</g>
</svg>
