<?xml version="1.0" encoding="utf-8" ?>
<svg xmlns="http://www.w3.org/2000/svg" xmlns:xlink="http://www.w3.org/1999/xlink" width="27" height="16">
	<defs>
		<clipPath id="clip_0">
			<rect x="-826.81482" y="-1416.5482" width="1504" height="1536.9" clip-rule="evenodd"/>
		</clipPath>
	</defs>
	<g clip-path="url(#clip_0)">
		<path fill="rgb(255,255,255)" stroke="none" transform="matrix(0.94 0 0 0.94 0.385162 0.0317078)" d="M18.7934 0C16.7412 0 14.8511 0.74651 13.393 2.02624C11.9889 0.74651 10.0988 0 8.0466 0C3.61827 0 0 3.57258 0 7.945C0 12.3174 3.61827 15.89 8.0466 15.89C10.0988 15.89 11.9889 15.1435 13.393 13.8638C14.7971 15.1435 16.6872 15.89 18.7934 15.89C23.2217 15.89 26.84 12.3174 26.84 7.945C26.84 3.57258 23.2217 0 18.7934 0ZM18.1454 10.0246C17.8213 10.1312 17.6053 10.1312 17.3893 10.1312C16.4712 10.1312 15.8772 9.43802 15.8772 8.37158C15.8772 6.93188 16.6872 5.91876 17.8753 5.91876C18.2534 5.91876 18.6854 6.07872 18.8474 6.13205L18.6854 6.9852C18.3614 6.82524 18.1454 6.77191 17.9293 6.77191C17.2813 6.77191 16.7953 7.41178 16.7953 8.26493C16.7953 8.85148 17.1193 9.22473 17.6053 9.22473C17.8213 9.22473 18.0373 9.17141 18.3614 9.01144L18.1454 10.0246ZM24.6348 10.0246L24.6258 10.0779L24.6258 10.0246L24.6348 10.0246ZM24.6798 9.75795L24.6348 10.0246L25.4359 10.0246L26.0839 5.97208L25.2199 5.97208L25.0039 7.14517C24.7878 6.87856 24.5178 6.71859 24.1938 6.71859C23.4377 6.71859 22.7897 7.67839 22.7897 8.74483C22.7897 9.59799 23.2217 10.1312 23.8698 10.1312C24.1938 10.1312 24.4638 10.0246 24.6798 9.75795ZM3.88829 6.9852L2.75421 10.0779L2.16016 10.0779L2.10616 6.9852L1.56612 10.0779L0.756056 10.0779L1.45811 6.0254L2.7002 6.0254L2.75421 8.53154L3.61827 6.0254L4.96837 6.0254L4.26632 10.0779L3.40225 10.0779L3.88829 6.9852ZM11.0168 9.27805C10.9628 9.33138 10.9088 9.33138 10.8008 9.33138C10.6388 9.33138 10.5308 9.22473 10.4228 9.06476C10.4228 8.95812 10.5848 8.21161 10.6928 7.57175L11.1248 7.57175L11.2328 6.77191L10.8008 6.77191L10.9088 6.29201L10.0447 6.29201L9.66672 8.53154C9.61272 8.85148 9.55871 9.22473 9.55871 9.3847C9.55871 9.8646 9.82873 10.1312 10.2608 10.1312C10.4768 10.1312 10.6928 10.0779 10.9088 10.0246L11.0168 9.27805ZM6.31847 9.75795L6.31847 10.0779C6.31847 10.0779 6.91251 10.0779 7.02052 10.0246C7.07453 9.75795 7.23654 8.74483 7.29054 8.26493C7.34455 7.99832 7.34455 7.78503 7.34455 7.62507Q7.34455 6.66527 6.21046 6.66527C5.88644 6.66527 5.61642 6.71859 5.18439 6.82523C5.18439 6.82523 5.07638 7.51842 5.07638 7.57175C5.23839 7.51842 5.56241 7.41178 5.99445 7.41178C6.37247 7.41178 6.53449 7.51842 6.53449 7.73171C6.53449 7.78503 6.53449 7.83836 6.48048 7.945L6.10245 7.945C5.13038 7.945 4.59034 8.4249 4.59034 9.22473C4.59034 9.75795 4.91437 10.1312 5.4004 10.1312C5.77843 10.1312 6.10245 10.0246 6.31847 9.75795ZM8.91066 8.10497C9.3427 8.31826 9.50471 8.58487 9.50471 9.01144C9.50471 9.75795 9.07268 10.1312 8.15461 10.1312C7.61457 10.1312 7.45256 10.0779 7.23654 10.0246C7.23654 9.97124 7.34455 9.27805 7.34455 9.27805C7.61457 9.3847 7.88459 9.3847 8.15461 9.3847Q8.49371 9.3847 8.59622 9.22896Q8.64064 9.16148 8.64064 9.06476C8.64064 8.9048 8.58664 8.85148 8.20861 8.69151C7.72258 8.47822 7.56056 8.21161 7.56056 7.78503C7.56056 7.19849 7.88459 6.66527 8.85666 6.66527C9.07268 6.66527 9.3967 6.71859 9.61272 6.71859L9.50471 7.4651C9.28869 7.41178 9.07268 7.41178 8.85666 7.41178C8.58664 7.41178 8.42463 7.51842 8.42463 7.67839C8.47863 7.89168 8.53264 7.945 8.91066 8.10497ZM12.853 9.3847C13.177 9.3847 13.447 9.33138 13.771 9.17141L13.609 9.97124C13.285 10.0779 13.015 10.0779 12.6909 10.0779Q11.9526 10.0779 11.5882 9.70876Q11.2328 9.34889 11.2328 8.63819C11.2328 7.51842 11.8809 6.66527 12.745 6.66527C13.447 6.66527 13.933 7.14517 13.933 7.83836C13.933 8.10497 13.879 8.31826 13.825 8.63819L12.0969 8.63819C12.0429 9.17141 12.3669 9.3847 12.853 9.3847ZM20.1435 10.0779L20.8456 10.0779C20.8456 9.81128 21.0076 8.79815 21.1156 8.26493C21.1696 7.99832 21.1696 7.78503 21.1696 7.62507C21.1696 6.9852 20.7915 6.66527 20.0355 6.66527C19.7115 6.66527 19.4414 6.71859 19.0094 6.82523C19.0094 6.82523 18.9014 7.51842 18.9014 7.57175C19.0634 7.51842 19.3874 7.41178 19.8195 7.41178C20.1975 7.41178 20.3595 7.51842 20.3595 7.73171C20.3595 7.78503 20.3595 7.83836 20.3055 7.945L19.9275 7.945C18.9554 7.945 18.4154 8.4249 18.4154 9.22473C18.4154 9.75795 18.7394 10.1312 19.2254 10.1312C19.6035 10.1312 19.9275 10.0246 20.1435 9.75795L20.1435 10.0779ZM13.933 10.0779L14.7971 10.0779L14.807 10.0162C15.1223 8.04405 15.1807 7.67894 15.7152 7.73171C15.7692 7.30513 15.9312 6.93188 16.0392 6.77191C15.6612 6.71859 15.4452 6.93188 15.1751 7.30513C15.1751 7.14517 15.2291 6.9852 15.2291 6.82524L14.4191 6.82524C14.3111 7.83836 14.1491 8.85148 13.987 9.8646L13.933 10.0779ZM22.0336 10.0779L21.1696 10.0779L21.2236 9.8646C21.3856 8.85148 21.5476 7.83836 21.6556 6.82524L22.4657 6.82524C22.4657 6.9852 22.4117 7.14517 22.4117 7.30513C22.6817 6.93188 22.8977 6.71859 23.2757 6.77191C23.1677 6.93188 23.0057 7.30513 22.9517 7.73171C22.4117 7.67839 22.3037 8.05164 22.0336 10.0779Z" fill-rule="evenodd"/>
	</g>
</svg>
